<svg width="14" height="14" viewBox="0 0 14 14" fill="none"
    xmlns="http://www.w3.org/2000/svg">
    <path d="M12 0H2C0.875 0 0 0.90625 0 2V12C0 13.125 0.875 14 2 14H12C13.0938 14 14 13.125 14 12V2C14 0.90625 13.0938 0 12 0ZM10.75 8.75C10.75 9.3125 10.2812 9.75 9.75 9.75C9.1875 9.75 8.75 9.3125 8.75 8.75V6.6875L4.9375 10.4688C4.75 10.6562 4.5 10.75 4.25 10.75C3.96875 10.75 3.71875 10.6562 3.53125 10.4688C3.125 10.0938 3.125 9.4375 3.53125 9.0625L7.3125 5.25H5.25C4.6875 5.25 4.25 4.8125 4.25 4.25C4.25 3.71875 4.6875 3.25 5.25 3.25H9.75C10.2812 3.25 10.75 3.71875 10.75 4.25V8.75Z" fill="#000000"/>
</svg>
