<svg width="16" height="16" viewBox="0 0 16 16" fill="none"
    xmlns="http://www.w3.org/2000/svg">
    <path d="M16 8C16 12.4375 12.4062 16 8 16C3.5625 16 0 12.4375 0 8C0 3.59375 3.5625 0 8 0C12.4062 0 16 3.59375 16 8ZM5.5 5.25V10.75C5.5 11.0312 5.625 11.2812 5.875 11.4062C6.09375 11.5625 6.40625 11.5312 6.625 11.4062L11.125 8.65625C11.3438 8.53125 11.5 8.28125 11.5 8C11.5 7.75 11.3438 7.5 11.125 7.375L6.625 4.625C6.40625 4.46875 6.09375 4.46875 5.875 4.625C5.625 4.75 5.5 5 5.5 5.25Z" fill="#000000"/>
</svg>
