<svg width="24" height="24" viewBox="0 0 24 24" fill="none" xmlns="http://www.w3.org/2000/svg">
<path d="M23.25 23.25L20.25 18.75V13.5C20.25 11.5 16.45 9.36 15 8.25" stroke="#515B63" stroke-linecap="round" stroke-linejoin="round"/>
<path d="M16.9301 14.79L13.2801 11.87C12.7701 11.36 11.9501 11.36 11.4401 11.87C10.9301 12.38 10.9301 13.2 11.4401 13.71L14.9701 17.7V20.2C14.9701 21.38 16.6601 23.25 16.6601 23.25" stroke="#515B63" stroke-linecap="round" stroke-linejoin="round"/>
<path d="M15 7.5V13.25" stroke="#515B63" stroke-linecap="round" stroke-linejoin="round"/>
<path d="M6 0.75H10.5" stroke="#515B63" stroke-linecap="round" stroke-linejoin="round"/>
<path d="M14.97 19.48C14.74 20.79 13.6 21.75 12.26 21.75H5.73C5.01 21.75 4.31 21.46 3.8 20.95C3.29 20.44 3 19.74 3 19.02V15" stroke="#515B63" stroke-linecap="round" stroke-linejoin="round"/>
<path d="M3 17.25H9" stroke="#515B63" stroke-linecap="round" stroke-linejoin="round"/>
<path d="M2.25 12C3.08 12 3.75 11.33 3.75 10.5C3.75 9.67 3.08 9 2.25 9C1.42 9 0.75 9.67 0.75 10.5C0.75 11.33 1.42 12 2.25 12Z" fill="#AABBC8" stroke="#515B63" stroke-linecap="round" stroke-linejoin="round"/>
<path d="M2.25 3.75C3.08 3.75 3.75 3.08 3.75 2.25C3.75 1.42 3.08 0.75 2.25 0.75C1.42 0.75 0.75 1.42 0.75 2.25C0.75 3.08 1.42 3.75 2.25 3.75Z" fill="#AABBC8" stroke="#515B63" stroke-linecap="round" stroke-linejoin="round"/>
<path d="M14.25 5.25C15.49 5.25 16.5 4.24 16.5 3C16.5 1.76 15.49 0.75 14.25 0.75C13.01 0.75 12 1.76 12 3C12 4.24 13.01 5.25 14.25 5.25Z" fill="#AABBC8" stroke="#515B63" stroke-linecap="round" stroke-linejoin="round"/>
<path d="M3.46997 3.12L6.32997 5.98" stroke="#515B63" stroke-linecap="round" stroke-linejoin="round"/>
<path d="M12.38 4.25L10.05 5.8" stroke="#515B63" stroke-linecap="round" stroke-linejoin="round"/>
<path d="M3.66992 10.01L6.40992 8.44" stroke="#515B63" stroke-linecap="round" stroke-linejoin="round"/>
<path d="M8.25 9.40002C9.49 9.40002 10.5 8.39002 10.5 7.15002C10.5 5.91002 9.49 4.90002 8.25 4.90002C7.01 4.90002 6 5.91002 6 7.15002C6 8.39002 7.01 9.40002 8.25 9.40002Z" stroke="#515B63" stroke-linecap="round" stroke-linejoin="round"/>
</svg>
