<svg width="24" height="24" viewBox="0 0 24 24" fill="none" xmlns="http://www.w3.org/2000/svg">
<path d="M4.24357 17.1355L2.84685 17.2077C2.02589 17.249 1.25823 16.7845 0.94903 16.0516C0.629173 15.3187 0.831749 14.4619 1.43948 13.9252L2.47369 13.0168C2.87884 12.6555 3.1134 12.1497 3.1134 11.6129C3.1134 11.0761 2.87884 10.5703 2.47369 10.209L1.43948 9.30064C0.821087 8.76387 0.629173 7.91742 0.94903 7.17419C1.26889 6.43097 2.02589 5.96645 2.85752 6.01806L4.25423 6.09032C4.80865 6.12129 5.34175 5.91484 5.73624 5.54322C6.13073 5.16129 6.3333 4.64516 6.30132 4.10839L6.22669 2.75613C6.18404 1.96129 6.66382 1.21806 7.43148 0.918708C8.18848 0.60903 9.07342 0.80516 9.62784 1.39355L10.5661 2.39484C10.9393 2.7871 11.4617 3.01419 12.0161 3.01419C12.5705 3.01419 13.093 2.7871 13.4661 2.39484L14.4044 1.39355C14.9588 0.80516 15.8331 0.60903 16.6007 0.918708C17.3577 1.22839 17.8482 1.96129 17.8055 2.75613L17.7309 4.10839C17.6989 4.64516 17.9122 5.16129 18.296 5.54322C18.6905 5.92516 19.2236 6.12129 19.778 6.09032L21.1747 6.01806C21.9957 5.97677 22.7633 6.44129 23.0725 7.17419C23.3924 7.9071 23.1898 8.76387 22.5821 9.30064L21.5479 10.209C21.1427 10.5703 20.9082 11.0761 20.9082 11.6129C20.9082 12.1497 21.1427 12.6555 21.5479 13.0168L22.5821 13.9252C23.1898 14.4619 23.3924 15.3084 23.0725 16.0516C22.7527 16.7845 21.9957 17.2594 21.1747 17.2181L19.778 17.1458" stroke="#515B63" stroke-linecap="round" stroke-linejoin="round"/>
<path d="M10.3955 23.2258H13.5941" stroke="#515B63" stroke-linecap="round" stroke-linejoin="round"/>
<path d="M17.5924 12.3871C17.603 9.58973 15.428 7.2465 12.5493 6.96779C9.67056 6.68908 7.05838 8.56779 6.50396 11.3136C5.94954 14.0594 7.63413 16.7536 10.3956 17.5588V20.1291H13.5941V17.5588C15.9611 16.8775 17.5817 14.782 17.5924 12.3871Z" fill="#ABD4CC" stroke="#515B63" stroke-linecap="round" stroke-linejoin="round"/>
</svg>
