<svg width="24" height="24" viewBox="0 0 24 24" fill="none" xmlns="http://www.w3.org/2000/svg">
<path d="M3.12991 12.8L3.57991 11.62L2.52991 8.88C2.37991 8.47 2.52991 8.01 2.88991 7.77L5.34991 6.16L6.11991 3.33C6.22991 2.91 6.62991 2.62 7.05991 2.65L9.98991 2.8L12.2799 0.949998C12.6199 0.679998 13.1099 0.679998 13.4399 0.949998L15.7299 2.8L18.6599 2.65C19.0999 2.63 19.4899 2.91 19.5999 3.33L20.3699 6.16L22.8299 7.77C23.1999 8.01 23.3499 8.47 23.1899 8.88L22.1499 11.62L23.1899 14.36C23.3499 14.77 23.1899 15.23 22.8299 15.47L20.3699 17.07L19.5999 19.91C19.4899 20.33 19.0899 20.62 18.6599 20.6L15.7299 20.45L13.4399 22.29" stroke="#515B63" stroke-linecap="round" stroke-linejoin="round"/>
<path d="M0.75 19.77L2.41 22.38" stroke="#515B63" stroke-linecap="round" stroke-linejoin="round"/>
<path d="M9.90991 8.15002L16.1999 18.07" stroke="#515B63" stroke-linecap="round" stroke-linejoin="round"/>
<path d="M15.8701 17.54L2.07008 21.86L1.08008 20.29L10.2401 8.66998L15.8701 17.54Z" fill="#AABBC8" stroke="#515B63" stroke-linecap="round" stroke-linejoin="round"/>
<path d="M5.06006 20.92L5.94006 22.27C6.23006 22.75 6.71006 23.09 7.26006 23.2C7.81006 23.32 8.38006 23.2 8.85006 22.88C9.82006 22.18 10.0801 20.85 9.44006 19.84L9.28006 19.6" stroke="#515B63" stroke-linecap="round" stroke-linejoin="round"/>
</svg>
