<svg width="24" height="24" viewBox="0 0 24 24" fill="none" xmlns="http://www.w3.org/2000/svg">
<path d="M11.5701 1.02042C11.6501 0.860351 11.8201 0.750305 12.0001 0.750305C12.1801 0.750305 12.3501 0.850347 12.4301 1.02042L13.4401 3.05126C13.5101 3.19132 13.6501 3.29136 13.8001 3.31137L16.0601 3.64151C16.2401 3.67152 16.3901 3.79157 16.4501 3.96164C16.5101 4.13171 16.4501 4.32179 16.3301 4.45185L14.6901 6.04251C14.5801 6.15256 14.5301 6.31262 14.5501 6.46269L14.9401 8.71362C14.9701 8.8937 14.8901 9.07377 14.7501 9.17382C14.6001 9.28386 14.4001 9.29387 14.2401 9.20383L12.2201 8.15339C12.0801 8.08336 11.9101 8.08336 11.7701 8.15339L9.75008 9.20383C9.59008 9.29387 9.39008 9.27386 9.24008 9.17382C9.09008 9.07377 9.02008 8.8837 9.05008 8.71362L9.44008 6.46269C9.47008 6.31262 9.41008 6.15256 9.30008 6.04251L7.66008 4.45185C7.53008 4.32179 7.48008 4.14172 7.54008 3.96164C7.60008 3.79157 7.75008 3.66152 7.93008 3.64151L10.1901 3.31137C10.3501 3.29136 10.4801 3.19132 10.5501 3.05126L11.5601 1.02042H11.5701Z" fill="#ABD4CC" stroke="#515B63" stroke-linecap="round" stroke-linejoin="round"/>
<path d="M6.32008 10.1042L5.46008 9.65399C5.32008 9.58397 5.15008 9.58397 5.01008 9.65399L3.00008 10.7044C2.84008 10.7945 2.64008 10.7745 2.49008 10.6744C2.34008 10.5644 2.27008 10.3843 2.30008 10.2042L2.69008 7.95329C2.72008 7.80322 2.67008 7.64316 2.55008 7.53311L0.910083 5.94245C0.780083 5.81239 0.730083 5.62231 0.790083 5.45224C0.850083 5.28217 1.00008 5.15212 1.18008 5.13211L3.44008 4.80197C3.60008 4.78196 3.73008 4.68192 3.80008 4.54186L4.81008 2.51102C4.89008 2.35095 5.06008 2.24091 5.24008 2.24091" stroke="#515B63" stroke-linecap="round" stroke-linejoin="round"/>
<path d="M17.6802 10.1042L18.5402 9.65399C18.6802 9.58396 18.8502 9.58396 18.9902 9.65399L21.0102 10.7044C21.1702 10.7945 21.3702 10.7745 21.5202 10.6744C21.6702 10.5644 21.7402 10.3843 21.7102 10.2042L21.3202 7.95328C21.2902 7.80322 21.3402 7.64315 21.4602 7.5331L23.1002 5.93244C23.2302 5.80238 23.2802 5.6123 23.2202 5.44223C23.1602 5.27216 23.0102 5.14211 22.8302 5.1221L20.5702 4.79196C20.4102 4.77195 20.2802 4.67191 20.2102 4.53185L19.2002 2.50101C19.1202 2.34094 18.9502 2.2309 18.7702 2.2309" stroke="#515B63" stroke-linecap="round" stroke-linejoin="round"/>
<path d="M17.03 23.2497C15.76 21.7991 13.93 20.9688 12 20.9688C10.07 20.9688 8.23997 21.7991 6.96997 23.2497" stroke="#515B63" stroke-linecap="round" stroke-linejoin="round"/>
<path d="M8.44019 13.2455C10.4202 15.2963 13.4602 15.9066 16.0802 14.7861" stroke="#515B63" stroke-linecap="round" stroke-linejoin="round"/>
<path d="M12.0001 19.4681C14.2801 19.4681 16.1201 17.6173 16.1201 15.3464C16.1201 13.0754 14.2701 11.2247 12.0001 11.2247C9.73013 11.2247 7.88013 13.0754 7.88013 15.3464C7.88013 17.6173 9.73013 19.4681 12.0001 19.4681Z" stroke="#515B63" stroke-linecap="round" stroke-linejoin="round"/>
</svg>
