<svg width="24" height="26" viewBox="0 0 24 26" fill="none" xmlns="http://www.w3.org/2000/svg">
<path d="M1.4395 0.833435C4.2327 3.3555 3.55589 2.33801 5.0062 3.27973C5.37146 3.52869 5.67227 3.87507 5.84416 4.28639C6.19868 5.07657 6.11274 6.00746 5.60781 6.72186C5.10289 7.43627 4.25419 7.81512 3.39474 7.7177C2.5353 7.6311 1.78328 7.07906 1.4395 6.27806C0.601545 4.56782 0.601545 2.5545 1.4395 0.833435Z" fill="#E4A283" stroke="#515B63" stroke-linecap="round" stroke-linejoin="round"/>
<path d="M3.65259 7.71777L4.65169 10.5754" stroke="#515B63" stroke-linecap="round" stroke-linejoin="round"/>
<path d="M11.9139 25.1881H7.07949C4.40447 25.1881 2.24512 23.0125 2.24512 20.3172V10.5753H16.7482V20.3172C16.7482 23.0125 14.5889 25.1881 11.9139 25.1881Z" stroke="#515B63" stroke-linecap="round" stroke-linejoin="round"/>
<path d="M18.3598 20.3172H16.7483V10.5753H18.3598C21.0348 10.5753 23.1941 12.751 23.1941 15.4463C23.1941 18.1415 21.0348 20.3172 18.3598 20.3172Z" stroke="#515B63" stroke-linecap="round" stroke-linejoin="round"/>
<path d="M5.81201 6.34302L8.42258 10.5753" stroke="#515B63" stroke-linecap="round" stroke-linejoin="round"/>
<path d="M11.7999 4.26562L11.3999 5.28125L12.5999 6.29688L14.1999 6.70312H15.5999L15.7999 6.09375L15.1999 1.01562L11.7999 4.26562Z" fill="#E4A283"/>
<path d="M9.47534 10.5754L11.6454 4.37303L15.3088 0.811829L15.9427 5.89926L14.3097 10.5754" stroke="#515B63" stroke-linecap="round" stroke-linejoin="round"/>
<path d="M15.6849 6.61369C14.0735 7.12243 12.3331 6.50545 11.3984 5.08746" stroke="#515B63" stroke-linecap="round" stroke-linejoin="round"/>
</svg>
