<svg width="24" height="24" viewBox="0 0 24 24" fill="none" xmlns="http://www.w3.org/2000/svg">
<path d="M20.6734 15.1363C19.8895 16.1867 18.5729 16.6869 17.2864 16.4368C16 16.1867 14.9749 15.2063 14.6633 13.9358" stroke="#515B63" stroke-linecap="round" stroke-linejoin="round"/>
<path d="M17.196 23.2497H23.2261C23.2261 20.3485 20.8643 17.9975 17.9497 17.9975C17.2161 17.9975 16.4925 18.1476 15.8191 18.4477" stroke="#515B63" stroke-linecap="round" stroke-linejoin="round"/>
<path d="M15.6985 11.2547C18.6131 11.2547 20.9749 8.9037 20.9749 6.00249C20.9749 3.10128 18.6131 0.750305 15.6985 0.750305C12.7839 0.750305 10.4221 3.10128 10.4221 6.00249C10.4221 8.9037 12.7839 11.2547 15.6985 11.2547Z" fill="#E4A283" stroke="#515B63" stroke-linecap="round" stroke-linejoin="round"/>
<path d="M23.2362 13.5056L19.4573 9.74408" stroke="#515B63" stroke-linecap="round" stroke-linejoin="round"/>
<path d="M3.39679 10.9846V11.985C3.43699 13.1355 3.13549 14.2759 2.53247 15.2563" stroke="#515B63" stroke-linecap="round" stroke-linejoin="round"/>
<path d="M3.40698 11.2047C4.99492 11.2047 6.50246 10.5044 7.53764 9.3139C8.08035 9.94417 8.76377 10.4344 9.52758 10.7645" stroke="#515B63" stroke-linecap="round" stroke-linejoin="round"/>
<path d="M11.3767 12.4252C10.5928 14.346 8.49225 15.3864 6.4822 14.8662C4.4621 14.336 3.15557 12.4052 3.42693 10.3443C3.69828 8.28344 5.45708 6.7428 7.53748 6.7428C7.63798 6.7428 7.72843 6.7428 7.82894 6.7528" stroke="#515B63" stroke-linecap="round" stroke-linejoin="round"/>
<path d="M14.3215 23.2497C14.3215 20.4885 12.6331 18.0075 10.0602 16.9871L7.53758 19.4981L5.01497 16.9871C2.4421 18.0075 0.753662 20.4885 0.753662 23.2497" stroke="#515B63" stroke-linecap="round" stroke-linejoin="round"/>
</svg>
