<svg width="24" height="26" viewBox="0 0 24 26" fill="none" xmlns="http://www.w3.org/2000/svg">
<path d="M20 13.9533V2.4375C20 1.53833 19.2853 0.8125 18.4 0.8125H5.6C4.71467 0.8125 4 1.53833 4 2.4375V13.9533" stroke="#515B63" stroke-linecap="round" stroke-linejoin="round"/>
<path d="M21.8987 12.415C22.144 12.22 22.464 12.1875 22.7414 12.3175C23.0187 12.4583 23.1894 12.74 23.1894 13.0433V23.5517C23.1894 24.4508 22.4747 25.1767 21.5894 25.1767H2.40005C1.51472 25.1767 0.800049 24.4508 0.800049 23.5517V13.0542C0.800049 12.74 0.981382 12.4583 1.24805 12.3283C1.52538 12.1875 1.85605 12.2308 2.09072 12.4258L10.016 18.8175C11.1787 19.7383 12.8107 19.7383 13.9734 18.8175L21.8987 12.4258V12.415Z" stroke="#515B63" stroke-linecap="round" stroke-linejoin="round"/>
<path d="M16.064 17.1275L19.2 20.3125" stroke="#515B63" stroke-linecap="round" stroke-linejoin="round"/>
<path d="M7.93605 17.1275L4.80005 20.3125" stroke="#515B63" stroke-linecap="round" stroke-linejoin="round"/>
<path d="M16.9173 3.95416L14.72 11.375H8.79995L7.19995 6.5H16.16" fill="#ABD4CC"/>
<path d="M16.9173 3.95416L14.72 11.375H8.79995L7.19995 6.5H16.16" stroke="#515B63" stroke-linecap="round" stroke-linejoin="round"/>
<path d="M9.19464 13.8125C9.41864 13.8125 9.59997 13.9967 9.59997 14.2242C9.59997 14.4517 9.41864 14.6358 9.19464 14.6358C8.97064 14.6358 8.78931 14.4517 8.78931 14.2242C8.78931 13.9967 8.97064 13.8125 9.19464 13.8125Z" stroke="#515B63" stroke-linecap="round" stroke-linejoin="round"/>
<path d="M14.3148 13.8125C14.5388 13.8125 14.7201 13.9967 14.7201 14.2242C14.7201 14.4517 14.5388 14.6358 14.3148 14.6358C14.0908 14.6358 13.9094 14.4517 13.9094 14.2242C13.9094 13.9967 14.0908 13.8125 14.3148 13.8125Z" stroke="#515B63" stroke-linecap="round" stroke-linejoin="round"/>
</svg>
