<svg width="72" height="73" viewBox="0 0 72 73" fill="none"
    xmlns="http://www.w3.org/2000/svg">
    <path d="M69.7109 70.7188C66.8114 62.5367 59.0895 57.0617 50.3603 57.0312C41.6617 57.0312 33.9093 62.5367 31.0098 70.7188" stroke="#515B63" stroke-width="2" stroke-linecap="round" stroke-linejoin="round"/>
    <path d="M39.4946 33.5496C45.5379 39.785 54.8164 41.6404 62.813 38.2337" stroke="#515B63" stroke-width="2" stroke-linecap="round" stroke-linejoin="round"/>
    <path d="M50.3602 52.4689C57.3191 52.4689 62.935 46.8418 62.935 39.9372C62.935 33.0326 57.2886 27.4055 50.3602 27.4055C43.4319 27.4055 37.7854 33.0326 37.7854 39.9372C37.7854 46.8418 43.4319 52.4689 50.3602 52.4689Z" stroke="#515B63" stroke-width="2" stroke-linecap="round" stroke-linejoin="round"/>
    <path d="M34.3365 25.0938H29.7583V31.9375L20.6019 25.0938H6.86727C4.334 25.0938 2.28906 23.0558 2.28906 20.5312V6.84375C2.28906 4.31917 4.334 2.28125 6.86727 2.28125H34.3365C36.8698 2.28125 38.9147 4.31917 38.9147 6.84375V20.5312C38.9147 23.0558 36.8698 25.0938 34.3365 25.0938Z" fill="#AABBC8" stroke="#515B63" stroke-width="2" stroke-linecap="round" stroke-linejoin="round"/>
    <path d="M22.891 9.125H11.4454" stroke="#515B63" stroke-width="2" stroke-linecap="round" stroke-linejoin="round"/>
    <path d="M29.7583 15.9688H11.4454" stroke="#515B63" stroke-width="2" stroke-linecap="round" stroke-linejoin="round"/>
    <path d="M17.0615 57.0313C22.128 57.0313 26.2179 52.9554 26.2179 47.9063C26.2179 42.8571 22.128 38.7812 17.0615 38.7812C11.9949 38.7812 7.90503 42.8571 7.90503 47.9063C7.90503 52.9554 11.9949 57.0313 17.0615 57.0313Z" stroke="#515B63" stroke-width="2" stroke-linecap="round" stroke-linejoin="round"/>
    <path d="M25.2106 64.2704C22.8605 62.5367 20.022 61.5938 17.092 61.5938C11.2929 61.5938 6.13477 65.2742 4.1814 70.7188" stroke="#515B63" stroke-width="2" stroke-linecap="round" stroke-linejoin="round"/>
    <path d="M50.3602 57.0312V70.7188" stroke="#515B63" stroke-width="2" stroke-linecap="round" stroke-linejoin="round"/>
</svg>
