<svg width="72" height="72" viewBox="0 0 72 72" fill="none"
    xmlns="http://www.w3.org/2000/svg">
    <path d="M60.7501 69.7499C60.7801 67.9199 59.9701 66.1499 58.5001 65.0399C52.1101 60.0599 44.1001 57.5399 36.0001 57.9599C27.9001 57.5399 19.8901 60.0299 13.5001 65.0399C12.0301 66.1799 11.2201 67.9199 11.2501 69.7499" stroke="#515B63" stroke-width="2" stroke-linecap="round" stroke-linejoin="round"/>
    <path d="M31.5 69.21L36 57.96L40.5 69.21" stroke="#515B63" stroke-width="2" stroke-linecap="round" stroke-linejoin="round"/>
    <path d="M54 20.25C54 10.32 45.93 2.25 36 2.25C26.07 2.25 18 10.32 18 20.25C17.79 27.3 21.84 33.81 28.29 36.72V45H43.71V36.72C50.16 33.81 54.21 27.3 54 20.25Z" fill="#E4A283" stroke="#515B63" stroke-width="2" stroke-linecap="round" stroke-linejoin="round"/>
    <path d="M36 45V49.5" stroke="#515B63" stroke-width="2" stroke-linecap="round" stroke-linejoin="round"/>
    <path d="M26.8201 36H45.1801" stroke="#515B63" stroke-width="2" stroke-linecap="round" stroke-linejoin="round"/>
    <path d="M36 36V27" stroke="#515B63" stroke-width="2" stroke-linecap="round" stroke-linejoin="round"/>
    <path d="M42.75 20.25L36 27L29.25 20.25" stroke="#515B63" stroke-width="2" stroke-linecap="round" stroke-linejoin="round"/>
    <path d="M65.25 20.25H69.75" stroke="#515B63" stroke-width="2" stroke-linecap="round" stroke-linejoin="round"/>
    <path d="M64.3201 30.5701L67.5001 33.7501" stroke="#515B63" stroke-width="2" stroke-linecap="round" stroke-linejoin="round"/>
    <path d="M64.3201 9.93L67.5001 6.75" stroke="#515B63" stroke-width="2" stroke-linecap="round" stroke-linejoin="round"/>
    <path d="M6.75 20.25H2.25" stroke="#515B63" stroke-width="2" stroke-linecap="round" stroke-linejoin="round"/>
    <path d="M7.68 30.5701L4.5 33.7501" stroke="#515B63" stroke-width="2" stroke-linecap="round" stroke-linejoin="round"/>
    <path d="M7.68 9.93L4.5 6.75" stroke="#515B63" stroke-width="2" stroke-linecap="round" stroke-linejoin="round"/>
</svg>
