<svg width="1358" height="275" viewBox="0 0 1358 275" fill="none"
    xmlns="http://www.w3.org/2000/svg">
    <path fill-rule="evenodd" clip-rule="evenodd" d="M1484 62.6605C1413.06 11.196 1321.05 -10.2375 1234.68 4.6143C1211.14 8.66324 1186.54 16.2098 1171.25 34.5937C1160.32 47.7398 1155.48 64.9176 1145.84 79.0458C1132.7 98.2912 1111.4 110.628 1089.31 118.019C1008.62 145.035 921.809 112.73 840.023 89.2629C763.66 67.347 684.25 52.9603 604.943 57.5951C579.977 59.0596 554.305 62.6605 532.851 75.5482C511.397 88.4187 495.04 112.506 497.898 137.368C499.93 155.114 511.19 171.327 510.502 189.16C509.279 221.431 469.454 239.298 437.686 233.715C405.901 228.116 378.938 207.819 349.099 195.5C296.445 173.756 233.651 178.46 184.803 207.768C120.407 246.431 76.9824 325.256 2.44495 334.387C9.41833 355.683 10.9508 376.462 0 396H1484V62.6605Z" fill="#E4A283"/>
</svg>
