<svg width="120" height="57" viewBox="0 0 120 57" fill="none" xmlns="http://www.w3.org/2000/svg">
<g clip-path="url(#clip0_1086_565)">
<path d="M91.2159 13.554C86.6308 13.554 82.5184 15.6273 79.7438 18.8918V16.5988C79.7438 15.5827 78.9278 14.7571 77.9196 14.7571C76.9115 14.7571 76.0955 15.581 76.0955 16.5988V55.1566C76.0955 56.1727 76.9115 56.9982 77.9196 56.9982C78.9278 56.9982 79.7438 56.1744 79.7438 55.1566V38.7397C82.5184 42.0042 86.6308 44.0775 91.2159 44.0775C99.5531 44.0775 106.335 37.231 106.335 28.814C106.335 20.3971 99.5531 13.5505 91.2159 13.5505V13.554ZM91.2159 40.3994C84.89 40.3994 79.7438 35.204 79.7438 28.8175C79.7438 22.4309 84.89 17.2355 91.2159 17.2355C97.5419 17.2355 102.688 22.4309 102.688 28.8175C102.688 35.204 97.5419 40.3994 91.2159 40.3994Z" fill="#1D1D1B"/>
<path d="M1.82418 44.3556C0.817737 44.3556 0 43.5318 0 42.514V3.95615C0 2.94007 0.816037 2.1145 1.82418 2.1145C2.83233 2.1145 3.64837 2.93835 3.64837 3.95615V42.514C3.64837 43.53 2.83233 44.3556 1.82418 44.3556Z" fill="#1D1D1B"/>
<path d="M69.3699 14.7588C68.3635 14.7588 67.5458 15.5827 67.5458 16.6005V18.8935C64.7712 15.629 60.6587 13.5557 56.0736 13.5557C47.7364 13.5557 40.9548 20.4022 40.9548 28.8192C40.9548 37.2361 47.7364 44.0827 56.0736 44.0827C60.6587 44.0827 64.7712 42.0093 67.5458 38.7448V42.2754C67.5458 43.2914 68.3618 44.117 69.3699 44.117C70.3781 44.117 71.1941 43.2931 71.1941 42.2754V16.6005C71.1941 15.5844 70.3781 14.7588 69.3699 14.7588ZM56.0753 40.3994C49.7493 40.3994 44.6032 35.204 44.6032 28.8174C44.6032 22.4309 49.7493 17.2355 56.0753 17.2355C62.4013 17.2355 67.5475 22.4309 67.5475 28.8174C67.5475 35.204 62.4013 40.3994 56.0753 40.3994Z" fill="#1D1D1B"/>
<path d="M22.7589 13.5557C14.4217 13.5557 7.63843 20.4022 7.63843 28.8157C7.63843 37.2293 14.4217 44.081 22.7589 44.081C26.8459 44.081 30.6745 42.4607 33.5408 39.5172C34.2463 38.7929 34.2378 37.6258 33.5187 36.9135C32.8013 36.2012 31.6469 36.2115 30.9397 36.9358C28.7653 39.1688 25.8599 40.3994 22.7589 40.3994C17.0535 40.3994 12.3085 36.1737 11.433 30.6591H35.8036C35.8495 30.6591 35.892 30.6488 35.9362 30.6454C35.9753 30.6471 36.0127 30.6574 36.0518 30.6574C37.0583 30.6574 37.876 29.8335 37.876 28.8157C37.876 20.4005 31.0944 13.5557 22.7606 13.5557H22.7589ZM22.7589 17.2372C28.4627 17.2372 33.2059 21.4629 34.0814 26.9775H11.4313C12.3068 21.4646 17.0518 17.2372 22.7589 17.2372Z" fill="#1D1D1B"/>
<path d="M90.0684 1.04693C90.0888 1.16708 90.0634 1.28036 89.9902 1.38334C89.9188 1.49147 89.8202 1.55497 89.6961 1.57557C89.572 1.59617 89.4598 1.57214 89.3578 1.50348C89.0093 1.2529 88.6387 1.08469 88.246 1.00059C87.8549 0.91649 87.4656 0.907909 87.0797 0.97313C86.67 1.0435 86.296 1.18767 85.9594 1.40565C85.6227 1.62363 85.3422 1.89138 85.1195 2.2089C84.8951 2.52643 84.737 2.88171 84.6418 3.27476C84.5483 3.6678 84.5364 4.07286 84.6061 4.49165C84.6741 4.89842 84.8135 5.27087 85.0243 5.60899C85.2351 5.94711 85.4952 6.23203 85.8064 6.46202C86.1175 6.69201 86.4677 6.86021 86.8553 6.96319C87.2429 7.06617 87.6509 7.08162 88.0777 7.00953C88.4687 6.9426 88.8308 6.80872 89.1674 6.60962C89.5023 6.40881 89.7998 6.13076 90.0599 5.77033C90.1297 5.6725 90.2283 5.61242 90.3524 5.59011C90.4782 5.5678 90.5887 5.59011 90.6856 5.65705C90.7927 5.72914 90.8556 5.8304 90.8743 5.95741C90.893 6.08442 90.8675 6.1977 90.7978 6.29553C90.4765 6.75208 90.094 7.11423 89.6485 7.38198C89.2031 7.64973 88.7288 7.82823 88.2222 7.91405C87.6883 8.00502 87.1698 7.98785 86.6683 7.86256C86.1651 7.73727 85.7094 7.52787 85.2997 7.23266C84.89 6.93916 84.5432 6.57015 84.2627 6.12733C83.9822 5.68451 83.7969 5.19364 83.7068 4.6547C83.649 4.308 83.6371 3.96473 83.6694 3.62146C83.7017 3.27819 83.7748 2.94693 83.887 2.62769C84.0009 2.30845 84.1505 2.00637 84.3409 1.72146C84.5313 1.43654 84.7557 1.18081 85.0141 0.95425C85.2742 0.727692 85.5632 0.537177 85.8846 0.380989C86.2042 0.224801 86.5544 0.114955 86.9335 0.0497335C87.435 -0.036084 87.94 -0.0223532 88.4466 0.0926423C88.9532 0.207638 89.4326 0.425614 89.8848 0.750004C89.9868 0.823807 90.048 0.919923 90.0684 1.04178V1.04693Z" fill="#1D1D1B"/>
<path d="M99.3628 4.03849C99.2268 4.25131 99.0636 4.43325 98.8732 4.58428C98.6828 4.73361 98.4702 4.85032 98.2373 4.93099C98.0027 5.01166 97.7596 5.05456 97.5046 5.058L98.4923 8.07191C98.511 8.13541 98.5161 8.1972 98.5076 8.26071C98.4991 8.32421 98.4804 8.38085 98.4498 8.43234C98.4192 8.48383 98.3801 8.52846 98.3325 8.5645C98.2849 8.60054 98.2305 8.62801 98.1693 8.64174C98.0469 8.67091 97.933 8.65547 97.8293 8.59368C97.7256 8.53189 97.6559 8.44264 97.6202 8.32421L96.5033 4.89666L95.3693 4.63063L94.7284 7.42141C94.6995 7.54499 94.6332 7.63939 94.5261 7.70461C94.4207 7.76983 94.305 7.78871 94.1843 7.75953C94.0636 7.73035 93.9684 7.66342 93.9004 7.55872C93.8341 7.45231 93.8137 7.33903 93.8426 7.21545L95.3931 0.46676C95.422 0.33975 95.4883 0.243635 95.5954 0.181846C95.7008 0.118341 95.8164 0.101178 95.9371 0.130356L97.916 0.59377C98.2271 0.665857 98.5076 0.791151 98.7542 0.969651C99.0024 1.14644 99.2047 1.35755 99.3645 1.60298C99.5243 1.84842 99.6314 2.11789 99.6858 2.4131C99.7402 2.70831 99.7317 3.01382 99.6586 3.32792C99.5991 3.59052 99.5005 3.82737 99.3645 4.04192L99.3628 4.03849ZM96.1751 1.12069L95.575 3.73812L97.1221 4.10027C97.3159 4.1449 97.5012 4.15176 97.6814 4.11744C97.8616 4.08483 98.0265 4.02132 98.1761 3.92864C98.3257 3.83596 98.4532 3.71753 98.5603 3.57164C98.6657 3.42746 98.7389 3.26613 98.7797 3.09278C98.8222 2.90913 98.8256 2.73234 98.7899 2.55728C98.7559 2.38392 98.6896 2.2243 98.5943 2.07841C98.4991 1.93252 98.3767 1.80723 98.2254 1.70253C98.0758 1.59784 97.9041 1.52403 97.7103 1.47769L96.1751 1.11726V1.12069Z" fill="#1D1D1B"/>
<path d="M101.422 10.2466C101.321 10.171 101.262 10.0749 101.243 9.95649C101.224 9.83978 101.248 9.72821 101.318 9.6218L105.05 3.82912C105.121 3.71927 105.216 3.65233 105.339 3.6283C105.461 3.60428 105.575 3.62659 105.684 3.69867L108.525 5.56263C108.633 5.633 108.7 5.72912 108.722 5.84926C108.746 5.96941 108.722 6.0844 108.652 6.19425C108.582 6.30409 108.487 6.37103 108.368 6.39849C108.249 6.42596 108.135 6.40364 108.028 6.33156L105.563 4.71304L104.183 6.85848L105.991 8.04619C106.102 8.11484 106.17 8.20924 106.195 8.32939C106.221 8.45125 106.199 8.56624 106.127 8.67609C106.059 8.7825 105.966 8.84601 105.849 8.86832C105.731 8.89063 105.617 8.86661 105.509 8.79452L103.7 7.6068L102.324 9.74194L104.789 11.3605C104.898 11.4308 104.963 11.5287 104.987 11.6505C105.01 11.7724 104.987 11.8857 104.919 11.9921C104.849 12.1019 104.754 12.1706 104.633 12.198C104.514 12.2272 104.4 12.2032 104.295 12.1294L101.423 10.2448L101.422 10.2466Z" fill="#1D1D1B"/>
<path d="M111.16 16.4889L109.211 13.7341L107.025 14.2353C106.898 14.2662 106.784 14.2456 106.68 14.1753C106.578 14.1049 106.512 14.0019 106.481 13.868C106.452 13.7427 106.473 13.6312 106.546 13.5316C106.615 13.4321 106.717 13.3686 106.847 13.3411L114.138 11.7672C114.334 11.7209 114.49 11.7809 114.607 11.9474C114.658 12.0195 114.687 12.1019 114.691 12.1911C114.694 12.2804 114.672 12.3662 114.624 12.4452L110.76 18.8815C110.695 18.993 110.605 19.0668 110.493 19.1046C110.379 19.1407 110.267 19.1269 110.157 19.0617C110.043 18.9982 109.97 18.9038 109.939 18.7785C109.907 18.6532 109.924 18.5348 109.988 18.4232L111.16 16.4889ZM110.172 13.5145L111.676 15.641L113.409 12.7816L110.172 13.5145Z" fill="#1D1D1B"/>
<path d="M117.948 20.9806L111.826 22.8721C111.705 22.9081 111.591 22.8978 111.483 22.8377C111.374 22.7777 111.301 22.685 111.262 22.5597C111.224 22.4344 111.234 22.3211 111.294 22.2164C111.353 22.1117 111.444 22.0431 111.563 22.0053L117.683 20.1139L117.161 18.3872C117.124 18.2619 117.134 18.1452 117.193 18.0354C117.253 17.9255 117.343 17.8517 117.462 17.814C117.586 17.7762 117.702 17.7865 117.81 17.8432C117.919 17.9015 117.992 17.9925 118.03 18.1178L119.351 22.4722C119.388 22.5974 119.378 22.7142 119.318 22.824C119.259 22.9339 119.167 23.0077 119.043 23.0471C118.919 23.0866 118.805 23.0746 118.698 23.0162C118.591 22.9579 118.519 22.8652 118.482 22.7399L117.948 20.9789V20.9806Z" fill="#1D1D1B"/>
<path d="M112.249 28.2563C112.263 28.131 112.314 28.0297 112.406 27.9542C112.496 27.8787 112.605 27.8444 112.729 27.8495L119.567 28.155C119.696 28.1602 119.801 28.2099 119.884 28.3043C119.968 28.397 120.007 28.5103 120 28.6407L119.85 32.0597C119.845 32.1902 119.796 32.2966 119.706 32.3772C119.616 32.4596 119.505 32.4974 119.376 32.4905C119.247 32.4854 119.142 32.4373 119.058 32.3481C118.975 32.2588 118.938 32.149 118.943 32.0185L119.074 29.0527L116.542 28.9394L116.447 31.1157C116.445 31.2462 116.399 31.3543 116.309 31.4367C116.219 31.5191 116.109 31.5603 115.979 31.5534C115.854 31.5482 115.752 31.4985 115.673 31.4075C115.593 31.3165 115.558 31.205 115.565 31.0745L115.66 28.8982L113.14 28.7849L113.009 31.7508C113.004 31.8812 112.955 31.9876 112.861 32.0683C112.768 32.149 112.661 32.1884 112.535 32.1833C112.406 32.1781 112.299 32.1301 112.214 32.0408C112.129 31.9516 112.091 31.8417 112.1 31.7113L112.251 28.2563H112.249Z" fill="#1D1D1B"/>
</g>
<defs>
<clipPath id="clip0_1086_565">
<rect width="120" height="57" fill="white"/>
</clipPath>
</defs>
</svg>
