<svg width="16" height="17" viewBox="0 0 16 17" fill="none"
    xmlns="http://www.w3.org/2000/svg">
    <path d="M13.5 0.875H2.25C0.984375 0.875 0 1.89453 0 3.125V14.375C0 15.6406 0.984375 16.625 2.25 16.625H13.5C14.7305 16.625 15.75 15.6406 15.75 14.375V3.125C15.75 1.89453 14.7305 0.875 13.5 0.875ZM12.0938 10.7188C12.0938 11.3516 11.5664 11.8438 10.9688 11.8438C10.3359 11.8438 9.84375 11.3516 9.84375 10.7188V8.39844L5.55469 12.6523C5.34375 12.8633 5.0625 12.9688 4.78125 12.9688C4.46484 12.9688 4.18359 12.8633 3.97266 12.6523C3.51562 12.2305 3.51562 11.4922 3.97266 11.0703L8.22656 6.78125H5.90625C5.27344 6.78125 4.78125 6.28906 4.78125 5.65625C4.78125 5.05859 5.27344 4.53125 5.90625 4.53125H10.9688C11.5664 4.53125 12.0938 5.05859 12.0938 5.65625V10.7188Z" fill="#000000"/>
</svg>
