<svg width="21" height="21" viewBox="0 0 21 21" fill="none"
    xmlns="http://www.w3.org/2000/svg">
    <path d="M20.0625 9.5625C20.5703 9.5625 21 9.99219 21 10.5C21 11.0469 20.5703 11.4375 20.0625 11.4375H11.9375V19.5625C11.9375 20.1094 11.5078 20.5 10.9609 20.5C10.4531 20.5 10.0234 20.1094 10.0234 19.5625V11.4375H1.89844C1.39062 11.4375 0.960938 11.0469 0.960938 10.5C0.960938 9.99219 1.39062 9.5625 1.89844 9.5625H10.0234V1.4375C10.0234 0.929688 10.4531 0.5 10.9609 0.5C11.5078 0.5 11.9375 0.929688 11.9375 1.4375V9.5625H20.0625Z" fill="black"/>
</svg>
