<svg width="37" height="40" viewBox="0 0 37 40" fill="none"
    xmlns="http://www.w3.org/2000/svg">
    <path d="M16.8242 19.7667L23.918 12.8167" stroke="#515B63" stroke-width="2" stroke-linecap="round" stroke-linejoin="round"/>
    <path d="M23.9185 12.8167L24.8881 6.56667L30.4168 1.25L31.2674 5.61667L35.7244 6.45L30.2978 11.8667L23.9185 12.8167Z" fill="#ABD4CC" stroke="#515B63" stroke-width="2" stroke-linecap="round" stroke-linejoin="round"/>
    <path d="M33.904 15.85C35.7582 22.7167 32.8323 29.9833 26.6911 33.75C20.55 37.5333 12.6056 36.9667 7.09388 32.35C1.56515 27.7333 -0.238071 20.15 2.61986 13.6167C5.46078 7.06667 12.3164 3.11667 19.5463 3.83334" stroke="#515B63" stroke-width="2" stroke-linecap="round" stroke-linejoin="round"/>
    <path d="M26.5209 17.9C27.4396 21.5167 25.9085 25.3167 22.7104 27.35C19.5122 29.3833 15.3444 29.2 12.3504 26.9C9.35635 24.6 8.16554 20.6833 9.40738 17.15C10.6492 13.6167 14.0345 11.25 17.8451 11.25" stroke="#515B63" stroke-width="2" stroke-linecap="round" stroke-linejoin="round"/>
    <path d="M9.16942 33.75L7.89355 38.75" stroke="#515B63" stroke-width="2" stroke-linecap="round" stroke-linejoin="round"/>
    <path d="M27.0312 33.75L28.3071 38.75" stroke="#515B63" stroke-width="2" stroke-linecap="round" stroke-linejoin="round"/>
</svg>
