<svg width="40" height="40" viewBox="0 0 40 40" fill="none"
    xmlns="http://www.w3.org/2000/svg">
    <path d="M33.7642 20.4C34.9313 19.85 35.9818 19.0333 36.7988 18.0167" stroke="#515B63" stroke-width="2" stroke-linecap="round" stroke-linejoin="round"/>
    <path d="M38.716 13.3C38.8327 12 38.666 10.7 38.2158 9.48334" stroke="#515B63" stroke-width="2" stroke-linecap="round" stroke-linejoin="round"/>
    <path d="M35.1315 5.41666C34.081 4.64999 32.8639 4.13333 31.5967 3.89999" stroke="#515B63" stroke-width="2" stroke-linecap="round" stroke-linejoin="round"/>
    <path d="M6.06899 22.1833C4.85182 22.7833 3.78471 23.6833 2.98438 24.7833" stroke="#515B63" stroke-width="2" stroke-linecap="round" stroke-linejoin="round"/>
    <path d="M1.25055 29.8333C1.2172 31.2 1.51733 32.55 2.11758 33.7667" stroke="#515B63" stroke-width="2" stroke-linecap="round" stroke-linejoin="round"/>
    <path d="M5.78564 37.6667C6.98614 38.3167 8.32003 38.6833 9.68727 38.7333" stroke="#515B63" stroke-width="2" stroke-linecap="round" stroke-linejoin="round"/>
    <path d="M18.7578 13.75V38.75" stroke="#515B63" stroke-width="2" stroke-linecap="round" stroke-linejoin="round"/>
    <path d="M13.9727 18.5167L18.7413 13.75L23.51 18.5167" stroke="#515B63" stroke-width="2" stroke-linecap="round" stroke-linejoin="round"/>
    <path d="M18.7579 8.75C20.8254 8.75 22.5095 7.06667 22.5095 5C22.5095 2.93333 20.8254 1.25 18.7579 1.25C16.6904 1.25 15.0063 2.93333 15.0063 5C15.0063 7.06667 16.6904 8.75 18.7579 8.75Z" fill="#E4A283" stroke="#515B63" stroke-width="2" stroke-linecap="round" stroke-linejoin="round"/>
</svg>
