<svg width="164" height="73" viewBox="0 0 164 73" fill="none"
    xmlns="http://www.w3.org/2000/svg">
    <path d="M157.88 0.147934C161.965 0.754303 164.622 4.72978 163.638 8.72373C159.572 25.2355 150.458 40.2642 137.484 51.6362C122.405 64.855 103.049 72.2562 82.9826 72.478C62.9236 72.6997 43.4143 65.7271 28.05 52.8443C14.8312 41.761 5.38738 26.9379 0.954824 10.5197C-0.116782 6.54888 2.45206 2.51566 6.52161 1.82036C10.0681 1.21399 13.5184 3.38075 14.4496 6.84225C18.1342 20.5462 26.017 32.9265 37.0601 42.1861C49.8625 52.9206 66.1164 58.7301 82.8272 58.5465C99.5461 58.3617 115.674 52.1941 128.241 41.1778C139.078 31.6768 146.686 19.1267 150.066 5.34423C150.919 1.86309 154.321 -0.378742 157.88 0.149089V0.147934Z" fill="#515B63"/>
</svg>
