<svg width="160" height="141" viewBox="0 0 160 141" fill="none"
    xmlns="http://www.w3.org/2000/svg">
    <path d="M81.8408 72.7961C117.18 72.7961 147.177 96.2968 157.323 128.63C159.164 134.497 154.435 140.026 148.287 140.026H15.3653C9.21671 140.026 4.48765 134.497 6.32901 128.63C16.478 96.2968 46.4866 72.7961 81.8408 72.7961Z" fill="#ABD4CC"/>
    <rect x="0.0032959" y="15.4683" width="62.5394" height="62.5394" rx="31.2697" fill="#E4A283"/>
    <path d="M155.421 49.0464C157.438 50.6475 157.634 53.6227 155.857 55.4728C148.514 63.1213 138.906 68.3949 128.354 70.4905C116.089 72.927 103.328 70.8884 92.4221 64.7515C81.52 58.6169 73.1578 48.7686 68.8767 37.0213C65.1932 26.9147 64.7144 15.9656 67.4393 5.71768C68.0985 3.23929 70.7433 1.86232 73.1578 2.75575C75.2622 3.53411 76.45 5.77995 75.8737 7.93954C73.5911 16.4885 73.9885 25.6318 77.0655 34.0752C80.6329 43.8636 87.5996 52.0688 96.6816 57.1801C105.768 62.2932 116.401 63.9913 126.622 61.9609C135.438 60.2096 143.459 55.8047 149.581 49.4159C151.127 47.8022 153.663 47.6522 155.421 49.047L155.421 49.0464Z" fill="#515B63"/>
</svg>
