<svg width="180" height="180" viewBox="0 0 180 180" fill="none"
    xmlns="http://www.w3.org/2000/svg">
    <path d="M58.7459 173.003L57.9715 174.667L49.7847 171.005L50.5591 169.341L53.6568 170.672L57.8609 161.129L59.9629 162.017L55.7588 171.56L58.7459 173.003Z" fill="white"/>
    <path d="M42.2613 158.465L45.5803 154.137L47.461 155.58L40.0486 165.345L38.1679 163.903L41.155 160.019L36.619 156.579L33.6319 160.463L31.8618 159.131L39.2742 149.366L41.0443 150.697L37.7254 155.025L42.2613 158.465Z" fill="white"/>
    <path d="M21.5735 148.7L30.756 140.599L32.3049 142.375L23.1224 150.475L21.5735 148.7Z" fill="white"/>
    <path d="M17.9226 127.838C19.914 126.728 22.016 127.394 23.3436 129.613C24.4499 131.389 24.3393 133.164 23.8968 134.274L21.9054 134.163C22.3479 132.831 22.2373 131.5 21.6841 130.501C21.131 129.502 20.2459 129.169 19.3608 129.613C18.5864 130.057 18.5864 130.834 18.697 131.944L19.0289 133.941C19.2502 135.384 18.9183 136.604 17.5907 137.381C15.71 138.491 13.6079 137.714 12.391 135.495C11.5059 133.941 11.5059 132.498 11.7272 131.5L13.7186 131.611C13.4973 132.609 13.4973 133.719 14.0505 134.607C14.6036 135.495 15.3781 135.938 16.1525 135.495C16.9269 135.051 16.8163 134.163 16.7056 133.497L16.3737 131.278C16.1525 129.724 16.595 128.614 17.9226 127.838Z" fill="white"/>
    <path d="M9.40371 100.096C11.6164 99.7629 13.3865 101.095 13.829 103.647C14.1609 105.755 13.4971 107.309 12.7227 108.197L10.8419 107.42C11.727 106.31 12.0589 105.089 11.8376 103.98C11.6164 102.87 10.9526 102.204 9.95688 102.315C8.96118 102.426 8.85056 103.203 8.51866 104.313L8.07612 106.31C7.74423 107.753 6.96979 108.751 5.53157 108.973C3.42955 109.306 1.65943 107.975 1.2169 105.422C0.885001 103.758 1.43816 102.315 1.99132 101.538L3.76145 102.315C3.20829 103.203 2.8764 104.202 2.98703 105.2C3.20829 106.199 3.76146 106.865 4.64652 106.754C5.53158 106.643 5.75284 105.755 5.86347 105.089L6.30601 102.981C7.08044 101.206 7.85486 100.318 9.40371 100.096Z" fill="white"/>
    <path d="M0.331901 86.0017C0.331901 84.781 0.66381 83.6713 1.32761 83.0055C1.9914 82.2287 2.87646 81.7848 4.09342 81.8958C5.31038 81.8958 6.19545 82.4506 6.85924 83.3384C7.52304 84.1152 7.7443 85.2249 7.63367 86.4456L7.52303 88.1101L12.2802 88.332L12.1696 90.6624L0 90.1076L0.331901 86.0017ZM5.53164 84.892C5.31037 84.4481 4.75722 84.2262 4.09342 84.1152C3.42963 84.1152 2.87646 84.4481 2.65519 84.781C2.3233 85.1139 2.21265 85.6688 2.21265 86.3346L2.10203 87.6662L5.86354 87.8882L5.97418 86.5565C5.97418 85.7797 5.7529 85.3358 5.53164 84.892Z" fill="white"/>
    <path d="M7.96533 72.5739C4.20382 71.4642 2.76559 68.0241 3.76128 64.584C4.75698 61.144 7.85468 59.1465 11.6162 60.2562C15.3777 61.3659 16.8159 64.806 15.8202 68.246C14.8245 71.5751 11.7268 73.6836 7.96533 72.5739ZM5.64204 65.1389C4.97824 67.3583 6.08456 69.4667 8.62912 70.2435C11.1737 71.0203 13.2757 69.7996 13.9395 67.5802C14.6033 65.3608 13.497 63.2524 10.9524 62.4756C8.40786 61.8098 6.30583 63.0305 5.64204 65.1389Z" fill="white"/>
    <path d="M11.5049 50.3804L9.84546 49.4926L14.2708 41.6138L15.9303 42.5015L14.2708 45.3868L23.232 50.6023L22.1257 52.5998L13.1644 47.3842L11.5049 50.3804Z" fill="white"/>
    <path d="M42.0404 29.2965C39.2746 31.5159 35.6237 31.4049 33.1898 28.4087C30.7559 25.4125 31.4197 21.7505 34.0748 19.5311C35.9556 17.9775 37.6151 17.9775 38.2789 17.9775L38.8321 19.975C38.2789 19.864 36.6194 19.975 35.2918 21.0847C33.6323 22.4163 33.0791 24.6357 34.9599 26.9661C36.6194 28.9636 38.9427 29.2965 40.9341 27.7429C42.151 26.7442 42.5936 25.4125 42.7042 24.4138L44.4743 25.1906C44.3637 26.1893 43.9211 27.8539 42.0404 29.2965Z" fill="white"/>
    <path d="M49.0103 16.7567C47.3509 13.2057 48.8997 9.76562 52.1081 8.32301C55.3164 6.76943 58.8567 7.76817 60.5162 11.3192C62.1757 14.8703 60.6268 18.1993 57.4184 19.7529C54.3207 21.1955 50.6698 20.3078 49.0103 16.7567ZM52.9931 10.0985C50.8911 11.0973 50.0061 13.3167 51.1124 15.647C52.2187 17.9774 54.542 18.7542 56.5334 17.8664C58.6354 16.8677 59.5205 14.6483 58.3035 12.207C57.3078 9.87659 55.0952 9.09981 52.9931 10.0985Z" fill="white"/>
    <path d="M80.4297 7.65641C80.7616 9.20999 80.651 10.4307 79.9872 11.5404C79.3234 12.6501 78.217 13.3159 76.4469 13.6488C74.6768 13.9817 73.4598 13.6488 72.4641 12.872C71.4684 12.0952 71.0259 10.8745 70.694 9.32096L69.4771 2.21887L71.8003 1.775L73.0173 8.76611C73.1279 9.65387 73.3492 10.5416 73.9024 10.9855C74.4555 11.4294 75.23 11.6513 76.115 11.5404C77.0001 11.4294 77.6639 10.8745 77.9958 10.3197C78.3277 9.65386 78.217 8.7661 78.1064 7.87835L76.8894 0.887233L79.1021 0.443359L80.4297 7.65641Z" fill="white"/>
    <path d="M93.7062 0.110977L93.2637 10.4312L97.5784 10.6531L97.4678 12.5396L90.9404 12.2067L91.4936 0L93.7062 0.110977Z" fill="white"/>
    <path d="M112.956 2.88509C115.058 3.43994 116.385 4.54963 117.049 5.54836C117.713 6.65806 118.377 8.21165 117.713 10.4311C117.049 12.6505 115.722 13.8711 114.615 14.426C113.509 14.9808 111.739 15.2028 109.747 14.6479L105.986 13.6492L109.194 1.77539L112.956 2.88509ZM113.398 12.6505C114.062 12.2066 114.947 11.5408 115.39 9.8762C115.832 8.32262 115.5 7.21292 115.058 6.43613C114.615 5.77031 113.841 5.1045 112.513 4.66062L110.854 4.21673L108.641 12.3175L110.301 12.7614C111.628 13.2053 112.734 13.0943 113.398 12.6505Z" fill="white"/>
    <path d="M144.375 18.0884C145.15 18.6433 145.814 19.3091 146.256 20.0859C146.699 21.0846 146.809 21.9724 145.924 23.0821C145.039 24.3028 143.601 24.3028 142.826 24.0808C143.822 25.3015 144.043 26.7441 143.158 27.9648C142.384 29.0745 141.278 29.4074 140.282 29.2964C139.397 29.1855 138.401 28.7416 137.516 27.9648L133.976 25.3015L141.388 15.5361L144.375 18.0884ZM139.839 27.4099C140.282 27.4099 140.835 27.188 141.278 26.6331C141.72 26.0783 141.72 25.5234 141.499 24.9686C141.278 24.4137 140.946 24.0808 140.393 23.6369L138.844 22.5272L136.631 25.4125L138.18 26.6331C138.844 27.077 139.286 27.4099 139.839 27.4099ZM142.495 22.7492C143.048 22.7492 143.49 22.6382 143.933 21.9724C144.597 21.0846 144.265 20.1969 143.269 19.5311L142.052 18.6433L140.061 21.3066L141.167 22.1943C141.609 22.5272 142.052 22.7492 142.495 22.7492Z" fill="white"/>
    <path d="M161.524 35.0663L160.086 36.287L156.656 32.2921L154.333 34.2895L157.541 38.0625L156.103 39.2832L152.894 35.5102L150.239 37.7296L153.669 41.8355L152.231 43.0562L147.252 37.1748L156.545 29.2959L161.524 35.0663Z" fill="white"/>
    <path d="M176.238 63.2527L174.468 63.9185L172.809 59.2578L169.6 60.4784L171.149 64.8063L169.379 65.4721L167.83 61.1443L163.184 62.8088L162.409 60.5894L173.915 56.3726L176.238 63.2527Z" fill="white"/>
    <path d="M172.919 74.5714C176.792 74.1275 179.447 76.7908 179.889 80.2309C180.332 83.7819 178.23 86.8891 174.358 87.3329C170.486 87.7768 167.83 85.2245 167.388 81.6735C166.945 78.1224 169.047 75.0153 172.919 74.5714ZM177.898 80.4528C177.677 78.2334 175.796 76.6798 173.251 76.9018C170.596 77.2347 169.158 79.1212 169.379 81.3406C169.6 83.56 171.481 85.1135 174.136 84.8916C176.792 84.6697 178.119 82.7832 177.898 80.4528Z" fill="white"/>
    <path d="M172.477 99.9845L167.609 99.3186L167.941 96.9883L180 98.6528L179.447 102.537C179.226 103.868 178.894 104.756 178.23 105.533C177.566 106.199 176.57 106.643 175.353 106.421C173.251 106.088 172.588 104.867 172.366 103.314L166.724 105.866L167.056 103.203L172.366 100.983L172.477 99.9845ZM174.247 103.203C174.468 103.757 174.911 103.979 175.575 104.09C176.239 104.201 176.681 103.979 177.124 103.536C177.566 103.092 177.677 102.537 177.787 101.871L177.898 100.65L174.247 100.206L174.136 101.427C173.915 102.093 173.915 102.648 174.247 103.203Z" fill="white"/>
    <path d="M171.812 128.947L170.595 131.166H164.621L167.829 136.16L166.612 138.379L162.408 131.166L157.983 128.725L159.089 126.728L163.515 129.169L171.812 128.947Z" fill="white"/>
    <path d="M156.434 142.374C159.311 145.038 159.089 148.811 156.766 151.363C154.332 154.026 150.681 154.47 147.805 151.807C144.928 149.143 145.039 145.481 147.473 142.818C149.796 140.155 153.558 139.711 156.434 142.374ZM155.328 150.031C156.877 148.367 156.877 145.925 154.885 144.15C152.894 142.374 150.571 142.596 149.022 144.261C147.473 145.925 147.473 148.367 149.464 150.142C151.456 151.918 153.779 151.696 155.328 150.031Z" fill="white"/>
    <path d="M130.989 162.793C130.104 161.462 129.662 160.352 129.883 159.02C130.104 157.8 130.879 156.69 132.317 155.691C133.755 154.804 135.083 154.471 136.3 154.915C137.516 155.247 138.402 156.135 139.287 157.467L143.159 163.459L141.167 164.68L137.295 158.687C136.742 157.911 136.3 157.245 135.525 156.912C134.861 156.69 134.087 156.801 133.312 157.245C132.538 157.8 132.206 158.466 132.095 159.131C131.985 159.908 132.427 160.685 132.981 161.462L136.853 167.454L134.972 168.675L130.989 162.793Z" fill="white"/>
    <path d="M119.816 163.682C120.147 164.458 119.705 165.124 118.93 165.457C118.156 165.79 117.382 165.457 117.16 164.68C116.828 163.904 117.271 163.238 118.045 162.905C118.709 162.683 119.484 162.905 119.816 163.682ZM121.254 175.001L118.377 166.789L120.258 166.123L123.577 174.224L121.254 175.001Z" fill="white"/>
</svg>
