<svg width="62" height="62" viewBox="0 0 62 62" fill="none"
    xmlns="http://www.w3.org/2000/svg">
    <path d="M40.6875 54.25C48.1792 54.25 54.25 48.1792 54.25 40.6875C54.25 33.1958 48.1792 27.125 40.6875 27.125C33.1958 27.125 27.125 33.1958 27.125 40.6875C27.125 48.1792 33.1958 54.25 40.6875 54.25Z" stroke="#E4A283" stroke-width="2" stroke-linecap="round" stroke-linejoin="round"/>
    <path d="M60.0626 60.0623L50.2717 50.2715" stroke="#E4A283" stroke-width="2" stroke-linecap="round" stroke-linejoin="round"/>
    <path d="M25.885 25.6784C23.3533 24.0767 20.4342 23.2242 17.4375 23.2501C9.58417 23.1984 2.91917 29.0109 1.9375 36.8126" stroke="white" stroke-width="2" stroke-linecap="round" stroke-linejoin="round"/>
    <path d="M17.4375 19.375C22.2425 19.375 26.1691 15.4741 26.1691 10.6433C26.1691 5.81245 22.2683 1.91162 17.4375 1.91162C12.6066 1.91162 8.70581 5.81245 8.70581 10.6433C8.70581 15.4741 12.6066 19.375 17.4375 19.375Z" stroke="white" stroke-width="2" stroke-linecap="round" stroke-linejoin="round"/>
    <path d="M42.625 15.5C46.3709 15.5 49.3934 12.4517 49.3934 8.73171C49.3934 5.01171 46.345 1.96338 42.625 1.96338C38.905 1.96338 35.8567 5.01171 35.8567 8.73171C35.8567 12.4517 38.905 15.5 42.625 15.5Z" stroke="white" stroke-width="2" stroke-linecap="round" stroke-linejoin="round"/>
    <path d="M52.7 23.2501C50.8141 19.9951 47.5075 17.8509 43.7616 17.4892C40.0416 17.1276 36.3475 18.5742 33.8933 21.4159" stroke="white" stroke-width="2" stroke-linecap="round" stroke-linejoin="round"/>
</svg>
