<svg width="16" height="17" viewBox="0 0 16 17" fill="none"
    xmlns="http://www.w3.org/2000/svg">
    <path d="M3.51562 17H0.246094V6.48828H3.51562V17ZM1.86328 5.08203C0.84375 5.08203 0 4.20312 0 3.14844C0 1.70703 1.54688 0.792969 2.8125 1.53125C3.41016 1.84766 3.76172 2.48047 3.76172 3.14844C3.76172 4.20312 2.91797 5.08203 1.86328 5.08203ZM15.7148 17H12.4805V11.9023C12.4805 10.6719 12.4453 9.125 10.7578 9.125C9.07031 9.125 8.82422 10.4258 8.82422 11.7969V17H5.55469V6.48828H8.68359V7.92969H8.71875C9.17578 7.12109 10.2305 6.24219 11.8125 6.24219C15.1172 6.24219 15.75 8.42188 15.75 11.2344V17H15.7148Z" fill="#000000"/>
</svg>
